<?xml version="1.0" encoding="UTF-8"?>
<svg width="24" height="24" viewBox="0 0 24 24"
     xmlns="http://www.w3.org/2000/svg" fill="#d3d3d3">
    <path d="M19.43 12.98c.04-.32.07-.65.07-.98s-.03-.66-.07-.98l2.11-1.65a.5.5 0 0 0 .12-.65l-2-3.46a.5.5 0 0 0-.61-.22l-2.49 1a7.007 7.007 0 0 0-1.69-.98l-.38-2.65A.5.5 0 0 0 14 2h-4a.5.5 0 0 0-.49.42l-.38 2.65c-.63.25-1.21.57-1.74.95l-2.49-1a.5.5 0 0 0-.61.22l-2 3.46a.5.5 0 0 0 .12.65l2.11 1.65c-.04.32-.07.65-.07.98s.03.66.07.98l-2.11 1.65a.5.5 0 0 0-.12.65l2 3.46c.14.24.42.34.68.22l2.49-1c.53.38 1.11.7 1.74.95l.38 2.65c.04.27.26.42.49.42h4c.24 0 .45-.15.49-.42l.38-2.65c.63-.25 1.21-.57 1.74-.95l2.49 1c.26.12.54.02.68-.22l2-3.46a.5.5 0 0 0-.12-.65l-2.11-1.65zM12 15.5c-1.93 0-3.5-1.57-3.5-3.5S10.07 8.5 12 8.5s3.5 1.57 3.5 3.5-1.57 3.5-3.5 3.5z"/>
</svg>
